<?xml version="1.0" standalone="no"?>
<!DOCTYPE svg PUBLIC "-//W3C//DTD SVG 20010904//EN"
 "http://www.w3.org/TR/2001/REC-SVG-20010904/DTD/svg10.dtd">
<svg version="1.0" xmlns="http://www.w3.org/2000/svg"
 width="300.000000pt" height="300.000000pt" viewBox="0 0 300.000000 300.000000"
 preserveAspectRatio="xMidYMid meet">
<metadata>
Created by potrace 1.11, written by Peter Selinger 2001-2013
</metadata>
<g transform="translate(0.000000,300.000000) scale(0.100000,-0.100000)"
fill="#000000" stroke="none">
<path d="M1830 2989 c-476 -43 -895 -151 -1310 -336 -65 -29 -67 -32 -75 -123
-2 -30 -8 -89 -12 -130 -10 -98 -10 -539 0 -660 39 -479 174 -963 387 -1395
72 -145 189 -357 191 -345 0 3 3 32 5 64 7 74 79 281 166 476 51 113 194 385
234 445 8 11 52 78 99 148 207 311 471 601 775 851 52 43 99 82 103 86 15 14
-455 2 -573 -15 -93 -13 -130 -16 -130 -10 0 12 122 177 216 290 175 213 368
405 566 562 53 43 96 78 95 79 -19 16 -593 26 -737 13z"/>
</g>
</svg>
